<svg xmlns="http://www.w3.org/2000/svg" version="1.1" xmlns:xlink="http://www.w3.org/1999/xlink" width="512" height="512" x="0" y="0" viewBox="0 0 512 512" style="enable-background:new 0 0 512 512" xml:space="preserve" class=""><g><path fill="#ffe09f" d="M256 115.718c-137.243 0-248.5 39.478-248.5 88.177l80.161 144.29c0-48.699 75.368-88.177 168.339-88.177s168.339 39.478 168.339 88.177l80.161-144.29c0-48.699-111.257-88.177-248.5-88.177z" opacity="1" data-original="#ffe09f" class=""></path><path fill="#ecbd83" d="M7.5 203.895v192.387h112.226zM392.274 396.282H504.5V203.895z" opacity="1" data-original="#ecbd83"></path><ellipse cx="256" cy="348.185" fill="#f9eac7" rx="104.21" ry="40.081" opacity="1" data-original="#f9eac7"></ellipse><path fill="#f4dbb3" d="M272.032 372.234c-57.553 0-104.21-17.945-104.21-40.081 0-2.081.539-4.109 1.334-6.104-10.955 6.344-17.366 13.949-17.366 22.136 0 22.136 46.656 40.081 104.21 40.081 52.143 0 95.215-14.745 102.875-33.977-18.665 10.811-50.575 17.945-86.843 17.945z" opacity="1" data-original="#f4dbb3"></path><path d="M347.58 320.109a7.5 7.5 0 0 0-7.703 12.871c8.274 4.952 12.832 10.352 12.832 15.206 0 13.604-36.792 32.581-96.709 32.581s-96.709-18.976-96.709-32.581 36.792-32.581 96.709-32.581c19.049 0 37.565 2.039 53.547 5.895 4.024.975 8.079-1.504 9.05-5.531a7.5 7.5 0 0 0-5.531-9.05c-17.116-4.13-36.849-6.313-57.065-6.313-54.154 0-111.709 16.676-111.709 47.581S201.846 395.766 256 395.766s111.709-16.676 111.709-47.581c0-7.312-3.492-18.12-20.129-28.076z" fill="#000000" opacity="1" data-original="#000000" class=""></path><path d="M434.224 134.476c-47.72-16.933-111.015-26.258-178.224-26.258s-130.504 9.326-178.224 26.258C27.621 152.273 0 176.926 0 203.895v192.387a7.5 7.5 0 0 0 7.5 7.5h112.226a7.498 7.498 0 0 0 6.478-11.279l-30.302-51.947c7.985-40.965 78.292-73.048 160.098-73.048 41.676 0 81.292 8.149 111.552 22.945 27.751 13.57 44.882 31.293 48.542 50.11l-30.298 51.94a7.498 7.498 0 0 0 6.478 11.279H504.5a7.5 7.5 0 0 0 7.5-7.5V203.895c0-26.969-27.621-51.622-77.776-69.419zm62.7 67.522-15.537 26.635c-5.822-10.11-15.468-19.607-28.896-28.363a7.5 7.5 0 0 0-10.379 2.186 7.5 7.5 0 0 0 2.186 10.379c15.298 9.975 24.801 20.954 27.692 31.909l-20.432 35.027c-7.369-16.979-24.008-32.48-48.723-45.13l37.534-81.791c34.892 14.157 55.178 31.706 56.555 49.148zm-128.746 72.198c-16.744-7.475-35.801-13.146-56.203-16.81l4.115-33.525c24.638 3.775 47.368 9.889 66.883 18.094zm-225.394-45.517a7.502 7.502 0 0 0 9.354 5c13.688-4.152 28.396-7.427 43.775-9.791l4.114 33.515c-20.404 3.666-39.463 9.342-56.196 16.811l-36.812-80.217c.197-.071.389-.144.586-.214 23.902-8.535 52.011-14.808 82.339-18.525L194.086 209c-16.251 2.477-31.812 5.93-46.301 10.324a7.502 7.502 0 0 0-5.001 9.355zm-102.78 16.052c4.283-16.281 23.325-32.379 53.042-45.22l16.123 35.134c-24.696 12.647-41.342 28.168-48.717 45.14zM184.02 126.995l4.097 33.382c-31.442 3.858-60.652 10.388-85.556 19.281-.613.219-1.211.444-1.818.665l-15.018-32.726c28.124-9.657 61.704-16.646 98.295-20.602zm20.84 46.658c16.604-1.542 33.751-2.339 51.14-2.339 17.443 0 34.577.793 51.141 2.325l-4.096 33.372c-15.226-1.714-30.992-2.601-47.045-2.601-15.986 0-31.757.897-47.042 2.624zm117.198 1.586c30.6 3.741 58.848 10.093 82.921 18.763l-15.748 34.316c-20.845-8.812-45.092-15.354-71.314-19.344zm104.216-27.642-15.016 32.722c-25.358-9.256-55.149-16.015-87.374-19.959l4.095-33.364c36.592 3.955 70.172 10.944 98.295 20.601zm-113.232-22.029-4.073 33.184c-17.173-1.605-34.921-2.437-52.969-2.437-17.993 0-35.754.835-52.967 2.451l-4.075-33.198c18.462-1.548 37.571-2.35 57.042-2.35s38.58.802 57.042 2.35zM71.632 152.85l15.154 33.021c-27.455 11.912-46.733 26.641-56.141 42.816l-15.569-26.689c1.377-17.442 21.663-34.991 56.556-49.148zM15 388.782V231.637l91.668 157.146H15zm70.942-65.299-14.773-25.324c1.035-18.101 16.6-35.613 44.257-49.877l14.953 32.583c-21.473 11.832-36.719 26.502-44.437 42.618zm128.919-68.357-4.076-33.205c14.676-1.652 29.834-2.51 45.215-2.51 15.453 0 30.608.845 45.219 2.481l-4.078 33.222c-13.349-1.714-27.143-2.606-41.141-2.606-13.983 0-27.778.9-41.139 2.618zm166.758 25.743 14.949-32.575c27.299 14.14 43.192 31.972 44.26 49.868l-14.767 25.316c-7.701-16.104-22.917-30.754-44.442-42.609zM497 388.782h-91.668L497 231.637z" fill="#000000" opacity="1" data-original="#000000" class=""></path></g></svg>